G04 #@! TF.FileFunction,Legend,Top*
%FSLAX46Y46*%
G04 Gerber Fmt 4.6, Leading zero omitted, Abs format (unit mm)*
G04 Created by KiCad (PCBNEW 4.0.2-stable) date 08/05/2016 13:05:11*
%MOMM*%
G01*
G04 APERTURE LIST*
%ADD10C,0.100000*%
%ADD11C,0.150000*%
G04 APERTURE END LIST*
D10*
D11*
X150000000Y-111500000D02*
X151500000Y-111500000D01*
X154000000Y-111500000D02*
X150000000Y-111500000D01*
X151000000Y-111500000D02*
X154000000Y-111500000D01*
X154000000Y-92000000D02*
X154000000Y-111500000D01*
X129000000Y-92000000D02*
X154000000Y-92000000D01*
X129000000Y-93500000D02*
X129000000Y-92000000D01*
X129000000Y-111500000D02*
X151000000Y-111500000D01*
X129000000Y-93500000D02*
X129000000Y-111500000D01*
X146000000Y-106250000D02*
X139000000Y-106250000D01*
X139000000Y-106250000D02*
X139000000Y-102750000D01*
X139000000Y-102750000D02*
X146000000Y-102750000D01*
X146000000Y-102750000D02*
X146000000Y-106250000D01*
X147506520Y-108447460D02*
X148903520Y-108447460D01*
X143061520Y-108447460D02*
X141537520Y-108447460D01*
X143442520Y-107685460D02*
X143442520Y-109209460D01*
X143188520Y-107685460D02*
X143188520Y-109209460D01*
X142934520Y-108447460D02*
X142934520Y-109209460D01*
X142934520Y-109209460D02*
X147506520Y-109209460D01*
X147506520Y-109209460D02*
X147506520Y-107685460D01*
X147506520Y-107685460D02*
X142934520Y-107685460D01*
X142934520Y-107685460D02*
X142934520Y-108447460D01*
X144199000Y-95686000D02*
X144199000Y-95886000D01*
X144199000Y-98280000D02*
X144199000Y-98100000D01*
X140971256Y-97969643D02*
G75*
G03X144199000Y-98286000I1727744J1003643D01*
G01*
X141646994Y-98099068D02*
G75*
G03X143750000Y-98100000I1052006J1133068D01*
G01*
X144186220Y-95659274D02*
G75*
G03X140949000Y-96006000I-1497220J-1306726D01*
G01*
X143712889Y-95886747D02*
G75*
G03X141665000Y-95906000I-1013889J-1079253D01*
G01*
X129980000Y-94480000D02*
X137600000Y-94480000D01*
X129980000Y-109720000D02*
X137600000Y-109720000D01*
X131250000Y-94480000D02*
X131250000Y-109720000D01*
X137600000Y-94480000D02*
X137600000Y-109720000D01*
X129980000Y-94480000D02*
X129980000Y-109720000D01*
X149030000Y-105910000D02*
X149030000Y-105402000D01*
X149030000Y-98290000D02*
X149030000Y-98798000D01*
X149030000Y-98798000D02*
X148014000Y-98798000D01*
X148014000Y-98798000D02*
X148014000Y-105402000D01*
X148014000Y-105402000D02*
X150046000Y-105402000D01*
X150046000Y-105402000D02*
X150046000Y-98798000D01*
X150046000Y-98798000D02*
X149030000Y-98798000D01*
X148522000Y-105402000D02*
X148014000Y-104894000D01*
X152075001Y-98190000D02*
X152075001Y-98698000D01*
X152075001Y-105810000D02*
X152075001Y-105302000D01*
X152075001Y-105302000D02*
X153091001Y-105302000D01*
X153091001Y-105302000D02*
X153091001Y-98698000D01*
X153091001Y-98698000D02*
X151059001Y-98698000D01*
X151059001Y-98698000D02*
X151059001Y-105302000D01*
X151059001Y-105302000D02*
X152075001Y-105302000D01*
X152583001Y-98698000D02*
X153091001Y-99206000D01*
X145333334Y-101857143D02*
X145285715Y-101904762D01*
X145142858Y-101952381D01*
X145047620Y-101952381D01*
X144904762Y-101904762D01*
X144809524Y-101809524D01*
X144761905Y-101714286D01*
X144714286Y-101523810D01*
X144714286Y-101380952D01*
X144761905Y-101190476D01*
X144809524Y-101095238D01*
X144904762Y-101000000D01*
X145047620Y-100952381D01*
X145142858Y-100952381D01*
X145285715Y-101000000D01*
X145333334Y-101047619D01*
X146285715Y-101952381D02*
X145714286Y-101952381D01*
X146000000Y-101952381D02*
X146000000Y-100952381D01*
X145904762Y-101095238D01*
X145809524Y-101190476D01*
X145714286Y-101238095D01*
X143427663Y-111439841D02*
X142856234Y-111439841D01*
X143141948Y-111439841D02*
X143141948Y-110439841D01*
X143046710Y-110582698D01*
X142951472Y-110677936D01*
X142856234Y-110725555D01*
X143856234Y-111439841D02*
X143856234Y-110439841D01*
X144427663Y-111439841D01*
X144427663Y-110439841D01*
X145332425Y-110773174D02*
X145332425Y-111439841D01*
X145094329Y-110392222D02*
X144856234Y-111106508D01*
X145475282Y-111106508D01*
X146380044Y-111439841D02*
X145808615Y-111439841D01*
X146094329Y-111439841D02*
X146094329Y-110439841D01*
X145999091Y-110582698D01*
X145903853Y-110677936D01*
X145808615Y-110725555D01*
X147237187Y-110773174D02*
X147237187Y-111439841D01*
X146999091Y-110392222D02*
X146760996Y-111106508D01*
X147380044Y-111106508D01*
X147903853Y-110868412D02*
X147808615Y-110820793D01*
X147760996Y-110773174D01*
X147713377Y-110677936D01*
X147713377Y-110630317D01*
X147760996Y-110535079D01*
X147808615Y-110487460D01*
X147903853Y-110439841D01*
X148094330Y-110439841D01*
X148189568Y-110487460D01*
X148237187Y-110535079D01*
X148284806Y-110630317D01*
X148284806Y-110677936D01*
X148237187Y-110773174D01*
X148189568Y-110820793D01*
X148094330Y-110868412D01*
X147903853Y-110868412D01*
X147808615Y-110916031D01*
X147760996Y-110963650D01*
X147713377Y-111058889D01*
X147713377Y-111249365D01*
X147760996Y-111344603D01*
X147808615Y-111392222D01*
X147903853Y-111439841D01*
X148094330Y-111439841D01*
X148189568Y-111392222D01*
X148237187Y-111344603D01*
X148284806Y-111249365D01*
X148284806Y-111058889D01*
X148237187Y-110963650D01*
X148189568Y-110916031D01*
X148094330Y-110868412D01*
X139261905Y-94452381D02*
X139261905Y-93452381D01*
X139500000Y-93452381D01*
X139642858Y-93500000D01*
X139738096Y-93595238D01*
X139785715Y-93690476D01*
X139833334Y-93880952D01*
X139833334Y-94023810D01*
X139785715Y-94214286D01*
X139738096Y-94309524D01*
X139642858Y-94404762D01*
X139500000Y-94452381D01*
X139261905Y-94452381D01*
X140785715Y-94452381D02*
X140214286Y-94452381D01*
X140500000Y-94452381D02*
X140500000Y-93452381D01*
X140404762Y-93595238D01*
X140309524Y-93690476D01*
X140214286Y-93738095D01*
X144738095Y-94452381D02*
X144738095Y-93452381D01*
X145309524Y-94452381D02*
X144880952Y-93880952D01*
X145309524Y-93452381D02*
X144738095Y-94023810D01*
X138261905Y-101952381D02*
X138261905Y-100952381D01*
X138833334Y-101952381D02*
X138404762Y-101380952D01*
X138833334Y-100952381D02*
X138261905Y-101523810D01*
X139785715Y-101952381D02*
X139214286Y-101952381D01*
X139500000Y-101952381D02*
X139500000Y-100952381D01*
X139404762Y-101095238D01*
X139309524Y-101190476D01*
X139214286Y-101238095D01*
X146833334Y-98952381D02*
X146500000Y-98476190D01*
X146261905Y-98952381D02*
X146261905Y-97952381D01*
X146642858Y-97952381D01*
X146738096Y-98000000D01*
X146785715Y-98047619D01*
X146833334Y-98142857D01*
X146833334Y-98285714D01*
X146785715Y-98380952D01*
X146738096Y-98428571D01*
X146642858Y-98476190D01*
X146261905Y-98476190D01*
X147785715Y-98952381D02*
X147214286Y-98952381D01*
X147500000Y-98952381D02*
X147500000Y-97952381D01*
X147404762Y-98095238D01*
X147309524Y-98190476D01*
X147214286Y-98238095D01*
X152527382Y-102547619D02*
X151860715Y-102547619D01*
X152051191Y-102547619D02*
X151955953Y-102500000D01*
X151908334Y-102452381D01*
X151860715Y-102357143D01*
X151860715Y-102261904D01*
X152527382Y-101404761D02*
X152527382Y-101976190D01*
X152527382Y-101690476D02*
X151527382Y-101690476D01*
X151670239Y-101785714D01*
X151765477Y-101880952D01*
X151813096Y-101976190D01*
M02*
